Disc Title:     Smurfs: The Lost Village – 4K Ultra HD
Disc Label:     Smurfs.The.Lost.Village.2017.COMPLETE.UHD.BLURAY-GLiMMER
Disc Size:      57,622,367,638 bytes
Protection:     AACS2
Extras:         Ultra HD, BD-Java
BDInfo:         0.7.5.5

Notes:          

BDINFO HOME:
  Cinema Squid (old)
    http://www.cinemasquid.com/blu-ray/tools/bdinfo
  UniqProject GitHub (new)
   https://github.com/UniqProject/BDInfo

INCLUDES FORUMS REPORT FOR:
  AVS Forum Blu-ray Audio and Video Specifications Thread
    http://www.avsforum.com/avs-vb/showthread.php?t=1155731


********************
PLAYLIST: 00510.MPLS
********************

<--- BEGIN FORUMS PASTE --->
[code]
                                                                                                                Total   Video                                             
Title                                                           Codec   Length  Movie Size      Disc Size       Bitrate Bitrate Main Audio Track                          Secondary Audio Track
-----                                                           ------  ------- --------------  --------------  ------- ------- ------------------                        ---------------------
00510.MPLS                                                      HEVC    1:29:46 51,683,782,656  57,622,367,638  76.76   49.71   Dolby Atmos 7.1 6309Kbps (48kHz/24-bit)   
[/code]

[code]

DISC INFO:

Disc Title:     Smurfs: The Lost Village – 4K Ultra HD
Disc Label:     Smurfs.The.Lost.Village.2017.COMPLETE.UHD.BLURAY-GLiMMER
Disc Size:      57,622,367,638 bytes
Protection:     AACS2
Extras:         Ultra HD, BD-Java
BDInfo:         0.7.5.5

PLAYLIST REPORT:

Name:                   00510.MPLS
Length:                 1:29:46.380 (h:m:s.ms)
Size:                   51,683,782,656 bytes
Total Bitrate:          76.76 Mbps

Angle 1 Length:         0:09:40.788 (h:m:s.ms) / 1:29:46.380 (h:m:s.ms)
Angle 1 Size:           5,654,870,016 bytes / 51,711,283,200 bytes
Angle 1 Total Bitrate:  77.89 Mbps / 76.80 Mbps

All Angles Length:      1:39:27.169 (h:m:s.ms)
All Angles Size:        57,338,652,672 bytes
All Angles Bitrate:     76.87 Mbps

VIDEO:

Codec                   Bitrate             Description     
-----                   -------             -----------     
MPEG-H HEVC Video       49707 kbps          2160p / 23.976 fps / 16:9 / Main 10 @ Level 5.1 @ High / 10 bits / HDR10 / BT.2020
MPEG-H HEVC Video (1)   5533 (51312) kbps   2160p / 23.976 fps / 16:9 / Main 10 @ Level 5.1 @ High / 10 bits / HDR10 / BT.2020

AUDIO:

Codec                           Language        Bitrate         Description     
-----                           --------        -------         -----------     
Dolby TrueHD/Atmos Audio        English         6309 kbps       7.1 / 48 kHz /  5669 kbps / 24-bit (AC3 Embedded: 5.1 / 48 kHz /   640 kbps / DN -31dB)
Dolby Digital Audio             Arabic          640 kbps        5.1 / 48 kHz /   640 kbps / DN -31dB
Dolby Digital Audio             Bulgarian       640 kbps        5.1 / 48 kHz /   640 kbps / DN -31dB
Dolby Digital Audio             Croatian        640 kbps        5.1 / 48 kHz /   640 kbps / DN -31dB
Dolby Digital Audio             Czech           640 kbps        5.1 / 48 kHz /   640 kbps / DN -31dB
Dolby Digital Audio             Estonian        640 kbps        5.1 / 48 kHz /   640 kbps / DN -31dB
Dolby Digital Audio             Greek           640 kbps        5.1 / 48 kHz /   640 kbps / DN -31dB
Dolby Digital Audio             Hebrew          640 kbps        5.1 / 48 kHz /   640 kbps / DN -31dB
Dolby Digital Audio             Hindi           640 kbps        5.1 / 48 kHz /   640 kbps / DN -31dB
Dolby Digital Audio             Hungarian       640 kbps        5.1 / 48 kHz /   640 kbps / DN -31dB
Dolby Digital Audio             Icelandic       640 kbps        5.1 / 48 kHz /   640 kbps / DN -31dB
Dolby Digital Audio             Italian         640 kbps        5.1 / 48 kHz /   640 kbps / DN -31dB
Dolby Digital Audio             Latvian         640 kbps        5.1 / 48 kHz /   640 kbps / DN -31dB
Dolby Digital Audio             Lithuanian      640 kbps        5.1 / 48 kHz /   640 kbps / DN -31dB
Dolby Digital Audio             Polish          640 kbps        5.1 / 48 kHz /   640 kbps / DN -31dB
Dolby Digital Audio             Portuguese      640 kbps        5.1 / 48 kHz /   640 kbps / DN -31dB
Dolby Digital Audio             Romanian        640 kbps        5.1 / 48 kHz /   640 kbps / DN -31dB
Dolby Digital Audio             Russian         640 kbps        5.1 / 48 kHz /   640 kbps / DN -31dB
Dolby Digital Audio             Serbian         640 kbps        5.1 / 48 kHz /   640 kbps / DN -31dB
Dolby Digital Audio             Slovak          640 kbps        5.1 / 48 kHz /   640 kbps / DN -31dB
Dolby Digital Audio             Slovenian       640 kbps        5.1 / 48 kHz /   640 kbps / DN -31dB
Dolby Digital Audio             Turkish         640 kbps        5.1 / 48 kHz /   640 kbps / DN -31dB
Dolby Digital Audio             Ukrainian       640 kbps        5.1 / 48 kHz /   640 kbps / DN -31dB
Dolby Digital Audio             English         192 kbps        2.0 / 48 kHz /   192 kbps / DN -31dB / Dolby Surround

SUBTITLES:

Codec                           Language        Bitrate         Description     
-----                           --------        -------         -----------     
Presentation Graphics           English         40.317 kbps                     
Presentation Graphics           Arabic          18.154 kbps                     
Presentation Graphics           Croatian        37.157 kbps                     
Presentation Graphics           Czech           37.697 kbps                     
Presentation Graphics           Estonian        40.473 kbps                     
Presentation Graphics           Greek           41.472 kbps                     
Presentation Graphics           Hebrew          26.538 kbps                     
Presentation Graphics           Hungarian       38.741 kbps                     
Presentation Graphics           Icelandic       42.886 kbps                     
Presentation Graphics           Italian         38.893 kbps                     
Presentation Graphics           Latvian         36.578 kbps                     
Presentation Graphics           Lithuanian      39.659 kbps                     
Presentation Graphics           Polish          37.390 kbps                     
Presentation Graphics           Portuguese      43.289 kbps                     
Presentation Graphics           Romanian        38.497 kbps                     
Presentation Graphics           Russian         42.049 kbps                     
Presentation Graphics           Serbian         38.506 kbps                     
Presentation Graphics           Slovak          39.198 kbps                     
Presentation Graphics           Slovenian       36.058 kbps                     
Presentation Graphics           Turkish         41.740 kbps                     
Presentation Graphics           Ukrainian       39.236 kbps                     
Presentation Graphics           Italian         65.061 kbps                     
Presentation Graphics           Bulgarian       40.475 kbps                     

FILES:

Name            Time In         Length          Size            Total Bitrate   
----            -------         ------          ----            -------------   
00336.M2TS      0:00:00.000     0:56:08.156     32,224,806,912  76,540          
00337.M2TS      0:56:08.156     0:01:32.050     904,980,480     78,651          
00342.M2TS (1)  0:56:08.156     0:01:32.050     904,986,624     78,651          
00346.M2TS      0:57:40.206     0:23:57.435     13,831,606,272  76,979          
00340.M2TS      1:21:37.642     0:08:08.738     4,722,388,992   77,299          
00343.M2TS (1)  1:21:37.642     0:08:08.738     4,749,883,392   77,749          

CHAPTERS:

Number          Time In         Length          Avg Video Rate  Max 1-Sec Rate  Max 1-Sec Time  Max 5-Sec Rate  Max 5-Sec Time  Max 10Sec Rate  Max 10Sec Time  Avg Frame Size  Max Frame Size  Max Frame Time  
------          -------         ------          --------------  --------------  --------------  --------------  --------------  --------------  --------------  --------------  --------------  --------------  
1               0:00:00.000     0:08:48.444     43,822 kbps     93,782 kbps     00:08:02.440    68,172 kbps     00:08:00.104    61,788 kbps     00:01:36.930    0 bytes         1,322,688 bytes 00:01:46.898    
2               0:08:48.444     0:02:14.968     45,233 kbps     67,319 kbps     00:10:49.315    64,090 kbps     00:10:47.063    58,474 kbps     00:10:42.183    0 bytes         935,308 bytes   00:10:59.492    
3               0:11:03.412     0:03:30.335     50,680 kbps     90,112 kbps     00:12:03.681    68,747 kbps     00:12:06.142    66,697 kbps     00:12:03.681    0 bytes         1,341,213 bytes 00:12:12.022    
4               0:14:33.747     0:06:47.323     48,586 kbps     104,053 kbps    00:19:20.534    72,481 kbps     00:19:17.364    66,831 kbps     00:19:12.401    0 bytes         1,203,061 bytes 00:19:22.244    
5               0:21:21.071     0:06:04.072     51,103 kbps     83,586 kbps     00:27:05.290    69,395 kbps     00:27:01.828    65,877 kbps     00:26:13.697    0 bytes         1,362,843 bytes 00:26:22.080    
6               0:27:25.143     0:03:08.396     55,271 kbps     90,524 kbps     00:28:05.642    71,695 kbps     00:29:39.903    68,603 kbps     00:29:54.834    0 bytes         1,268,865 bytes 00:29:19.424    
7               0:30:33.540     0:06:15.541     47,498 kbps     94,283 kbps     00:34:07.920    74,858 kbps     00:34:07.587    70,172 kbps     00:34:07.295    0 bytes         1,574,446 bytes 00:34:08.129    
8               0:36:49.081     0:05:52.268     50,286 kbps     106,732 kbps    00:40:07.113    83,004 kbps     00:40:06.779    67,407 kbps     00:40:06.362    0 bytes         1,547,870 bytes 00:36:49.874    
9               0:42:41.350     0:03:17.322     61,638 kbps     99,950 kbps     00:43:36.655    78,003 kbps     00:43:32.901    74,448 kbps     00:43:27.938    0 bytes         1,085,724 bytes 00:42:59.159    
10              0:45:58.672     0:04:37.277     48,991 kbps     83,686 kbps     00:45:58.672    59,228 kbps     00:48:06.800    58,479 kbps     00:48:06.800    0 bytes         978,173 bytes   00:50:35.949    
11              0:50:35.949     0:06:27.637     50,454 kbps     91,963 kbps     00:54:51.287    66,181 kbps     00:56:58.248    61,214 kbps     00:51:01.475    0 bytes         1,189,289 bytes 00:54:52.122    
12              0:57:03.586     0:05:31.706     48,957 kbps     91,854 kbps     00:59:24.978    63,961 kbps     00:59:21.391    57,434 kbps     00:59:21.099    0 bytes         1,034,798 bytes 00:59:52.547    
13              1:02:35.293     0:06:32.475     49,861 kbps     89,766 kbps     01:04:11.264    71,920 kbps     01:02:36.169    62,349 kbps     01:02:35.293    0 bytes         1,088,573 bytes 01:02:38.754    
14              1:09:07.768     0:05:31.706     51,368 kbps     74,791 kbps     01:14:20.956    67,991 kbps     01:14:19.872    64,020 kbps     01:14:16.118    0 bytes         976,520 bytes   01:09:34.628    
15              1:14:39.474     0:04:55.003     46,632 kbps     84,259 kbps     01:18:27.119    61,169 kbps     01:15:16.929    55,128 kbps     01:14:51.445    0 bytes         1,143,259 bytes 01:16:53.734    
16              1:19:34.478     0:10:11.902     51,561 kbps     89,381 kbps     01:26:15.878    73,162 kbps     01:26:15.545    67,453 kbps     01:26:10.290    0 bytes         1,258,408 bytes 01:28:20.336    

STREAM DIAGNOSTICS:

File            PID             Type            Codec           Language                Seconds                 Bitrate                 Bytes           Packets         
----            ---             ----            -----           --------                --------------          --------------          -------------   -----           
00336.M2TS      4113 (0x1011)   0x24            HEVC                                    3368.031                49,508                  20,842,880,068  113,323,865     
00336.M2TS      4352 (0x1100)   0x83            Atmos           eng (English)           3368.031                6,204                   2,611,933,988   16,616,350      
00336.M2TS      4353 (0x1101)   0x81            AC3             ara (Arabic)            3368.031                640                     269,455,360     1,578,840       
00336.M2TS      4354 (0x1102)   0x81            AC3             bul (Bulgarian)         3368.031                640                     269,455,360     1,578,840       
00336.M2TS      4355 (0x1103)   0x81            AC3             hrv (Croatian)          3368.031                640                     269,455,360     1,578,840       
00336.M2TS      4356 (0x1104)   0x81            AC3             ces (Czech)             3368.031                640                     269,455,360     1,578,840       
00336.M2TS      4357 (0x1105)   0x81            AC3             est (Estonian)          3368.031                640                     269,455,360     1,578,840       
00336.M2TS      4358 (0x1106)   0x81            AC3             ell (Greek)             3368.031                640                     269,455,360     1,578,840       
00336.M2TS      4359 (0x1107)   0x81            AC3             heb (Hebrew)            3368.031                640                     269,455,360     1,578,840       
00336.M2TS      4360 (0x1108)   0x81            AC3             hin (Hindi)             3368.031                640                     269,455,360     1,578,840       
00336.M2TS      4361 (0x1109)   0x81            AC3             hun (Hungarian)         3368.031                640                     269,455,360     1,578,840       
00336.M2TS      4362 (0x110A)   0x81            AC3             isl (Icelandic)         3368.031                640                     269,455,360     1,578,840       
00336.M2TS      4363 (0x110B)   0x81            AC3             ita (Italian)           3368.031                640                     269,455,360     1,578,840       
00336.M2TS      4364 (0x110C)   0x81            AC3             lav (Latvian)           3368.031                640                     269,455,360     1,578,840       
00336.M2TS      4365 (0x110D)   0x81            AC3             lit (Lithuanian)        3368.031                640                     269,455,360     1,578,840       
00336.M2TS      4366 (0x110E)   0x81            AC3             pol (Polish)            3368.031                640                     269,455,360     1,578,840       
00336.M2TS      4367 (0x110F)   0x81            AC3             por (Portuguese)        3368.031                640                     269,455,360     1,578,840       
00336.M2TS      4368 (0x1110)   0x81            AC3             ron (Romanian)          3368.031                640                     269,455,360     1,578,840       
00336.M2TS      4369 (0x1111)   0x81            AC3             rus (Russian)           3368.031                640                     269,455,360     1,578,840       
00336.M2TS      4370 (0x1112)   0x81            AC3             srp (Serbian)           3368.031                640                     269,455,360     1,578,840       
00336.M2TS      4371 (0x1113)   0x81            AC3             slk (Slovak)            3368.031                640                     269,455,360     1,578,840       
00336.M2TS      4372 (0x1114)   0x81            AC3             slv (Slovenian)         3368.031                640                     269,455,360     1,578,840       
00336.M2TS      4373 (0x1115)   0x81            AC3             tur (Turkish)           3368.031                640                     269,455,360     1,578,840       
00336.M2TS      4374 (0x1116)   0x81            AC3             ukr (Ukrainian)         3368.031                640                     269,455,360     1,578,840       
00336.M2TS      4375 (0x1117)   0x81            AC3             eng (English)           3368.031                192                     80,836,608      526,280         
00336.M2TS      4768 (0x12A0)   0x90            PGS             eng (English)           3368.031                46                      19,210,474      109,333         
00336.M2TS      4769 (0x12A1)   0x90            PGS             ara (Arabic)            3368.031                20                      8,580,648       51,504          
00336.M2TS      4770 (0x12A2)   0x90            PGS             hrv (Croatian)          3368.031                42                      17,492,496      99,979          
00336.M2TS      4771 (0x12A3)   0x90            PGS             ces (Czech)             3368.031                42                      17,655,057      100,868         
00336.M2TS      4772 (0x12A4)   0x90            PGS             est (Estonian)          3368.031                46                      19,217,852      109,356         
00336.M2TS      4773 (0x12A5)   0x90            PGS             ell (Greek)             3368.031                47                      19,685,953      111,858         
00336.M2TS      4774 (0x12A6)   0x90            PGS             heb (Hebrew)            3368.031                30                      12,546,964      73,132          
00336.M2TS      4775 (0x12A7)   0x90            PGS             hun (Hungarian)         3368.031                43                      18,191,513      103,784         
00336.M2TS      4776 (0x12A8)   0x90            PGS             isl (Icelandic)         3368.031                49                      20,469,405      116,171         
00336.M2TS      4777 (0x12A9)   0x90            PGS             ita (Italian)           3368.031                44                      18,495,859      105,438         
00336.M2TS      4778 (0x12AA)   0x90            PGS             lav (Latvian)           3368.031                41                      17,326,698      99,098          
00336.M2TS      4779 (0x12AB)   0x90            PGS             lit (Lithuanian)        3368.031                45                      18,762,481      106,876         
00336.M2TS      4780 (0x12AC)   0x90            PGS             pol (Polish)            3368.031                42                      17,604,488      100,603         
00336.M2TS      4781 (0x12AD)   0x90            PGS             por (Portuguese)        3368.031                49                      20,534,911      116,514         
00336.M2TS      4782 (0x12AE)   0x90            PGS             ron (Romanian)          3368.031                43                      18,155,104      103,561         
00336.M2TS      4783 (0x12AF)   0x90            PGS             rus (Russian)           3368.031                47                      19,864,280      112,862         
00336.M2TS      4784 (0x12B0)   0x90            PGS             srp (Serbian)           3368.031                43                      18,175,489      103,697         
00336.M2TS      4785 (0x12B1)   0x90            PGS             slk (Slovak)            3368.031                44                      18,638,244      106,206         
00336.M2TS      4786 (0x12B2)   0x90            PGS             slv (Slovenian)         3368.031                41                      17,163,440      98,194          
00336.M2TS      4787 (0x12B3)   0x90            PGS             tur (Turkish)           3368.031                47                      19,780,100      112,387         
00336.M2TS      4788 (0x12B4)   0x90            PGS             ukr (Ukrainian)         3368.031                44                      18,549,628      105,747         
00336.M2TS      4789 (0x12B5)   0x90            PGS             ita (Italian)           3368.031                67                      28,356,542      160,898         
00336.M2TS      4790 (0x12B6)   0x90            PGS             bul (Bulgarian)         3368.031                45                      19,034,198      108,360         
00337.M2TS      4113 (0x1011)   0x24            HEVC                                    91.883                  51,484                  591,320,581     3,214,975       
00337.M2TS      4352 (0x1100)   0x83            Atmos           eng (English)           91.883                  6,872                   78,928,182      498,145         
00337.M2TS      4353 (0x1101)   0x81            AC3             ara (Arabic)            91.883                  641                     7,367,680       43,170          
00337.M2TS      4354 (0x1102)   0x81            AC3             bul (Bulgarian)         91.883                  641                     7,367,680       43,170          
00337.M2TS      4355 (0x1103)   0x81            AC3             hrv (Croatian)          91.883                  641                     7,367,680       43,170          
00337.M2TS      4356 (0x1104)   0x81            AC3             ces (Czech)             91.883                  641                     7,367,680       43,170          
00337.M2TS      4357 (0x1105)   0x81            AC3             est (Estonian)          91.883                  641                     7,367,680       43,170          
00337.M2TS      4358 (0x1106)   0x81            AC3             ell (Greek)             91.883                  641                     7,367,680       43,170          
00337.M2TS      4359 (0x1107)   0x81            AC3             heb (Hebrew)            91.883                  641                     7,367,680       43,170          
00337.M2TS      4360 (0x1108)   0x81            AC3             hin (Hindi)             91.883                  641                     7,367,680       43,170          
00337.M2TS      4361 (0x1109)   0x81            AC3             hun (Hungarian)         91.883                  641                     7,367,680       43,170          
00337.M2TS      4362 (0x110A)   0x81            AC3             isl (Icelandic)         91.883                  641                     7,367,680       43,170          
00337.M2TS      4363 (0x110B)   0x81            AC3             ita (Italian)           91.883                  641                     7,367,680       43,170          
00337.M2TS      4364 (0x110C)   0x81            AC3             lav (Latvian)           91.883                  641                     7,367,680       43,170          
00337.M2TS      4365 (0x110D)   0x81            AC3             lit (Lithuanian)        91.883                  641                     7,367,680       43,170          
00337.M2TS      4366 (0x110E)   0x81            AC3             pol (Polish)            91.883                  641                     7,367,680       43,170          
00337.M2TS      4367 (0x110F)   0x81            AC3             por (Portuguese)        91.883                  641                     7,367,680       43,170          
00337.M2TS      4368 (0x1110)   0x81            AC3             ron (Romanian)          91.883                  641                     7,367,680       43,170          
00337.M2TS      4369 (0x1111)   0x81            AC3             rus (Russian)           91.883                  641                     7,367,680       43,170          
00337.M2TS      4370 (0x1112)   0x81            AC3             srp (Serbian)           91.883                  641                     7,367,680       43,170          
00337.M2TS      4371 (0x1113)   0x81            AC3             slk (Slovak)            91.883                  641                     7,367,680       43,170          
00337.M2TS      4372 (0x1114)   0x81            AC3             slv (Slovenian)         91.883                  641                     7,367,680       43,170          
00337.M2TS      4373 (0x1115)   0x81            AC3             tur (Turkish)           91.883                  641                     7,367,680       43,170          
00337.M2TS      4374 (0x1116)   0x81            AC3             ukr (Ukrainian)         91.883                  641                     7,367,680       43,170          
00337.M2TS      4375 (0x1117)   0x81            AC3             eng (English)           91.883                  192                     2,210,304       14,390          
00337.M2TS      4768 (0x12A0)   0x90            PGS             eng (English)           91.883                  16                      188,069         1,072           
00337.M2TS      4769 (0x12A1)   0x90            PGS             ara (Arabic)            91.883                  9                       108,681         668             
00337.M2TS      4770 (0x12A2)   0x90            PGS             hrv (Croatian)          91.883                  19                      213,226         1,216           
00337.M2TS      4771 (0x12A3)   0x90            PGS             ces (Czech)             91.883                  18                      210,032         1,197           
00337.M2TS      4772 (0x12A4)   0x90            PGS             est (Estonian)          91.883                  17                      200,564         1,146           
00337.M2TS      4773 (0x12A5)   0x90            PGS             ell (Greek)             91.883                  19                      214,433         1,243           
00337.M2TS      4774 (0x12A6)   0x90            PGS             heb (Hebrew)            91.883                  13                      146,793         873             
00337.M2TS      4775 (0x12A7)   0x90            PGS             hun (Hungarian)         91.883                  16                      185,367         1,066           
00337.M2TS      4776 (0x12A8)   0x90            PGS             isl (Icelandic)         91.883                  20                      228,183         1,298           
00337.M2TS      4777 (0x12A9)   0x90            PGS             ita (Italian)           91.883                  18                      208,758         1,192           
00337.M2TS      4778 (0x12AA)   0x90            PGS             lav (Latvian)           91.883                  17                      191,098         1,096           
00337.M2TS      4779 (0x12AB)   0x90            PGS             lit (Lithuanian)        91.883                  20                      224,278         1,276           
00337.M2TS      4780 (0x12AC)   0x90            PGS             pol (Polish)            91.883                  17                      193,089         1,106           
00337.M2TS      4781 (0x12AD)   0x90            PGS             por (Portuguese)        91.883                  19                      221,915         1,263           
00337.M2TS      4782 (0x12AE)   0x90            PGS             ron (Romanian)          91.883                  23                      260,691         1,496           
00337.M2TS      4783 (0x12AF)   0x90            PGS             rus (Russian)           91.883                  20                      230,721         1,312           
00337.M2TS      4784 (0x12B0)   0x90            PGS             srp (Serbian)           91.883                  18                      211,664         1,206           
00337.M2TS      4785 (0x12B1)   0x90            PGS             slk (Slovak)            91.883                  17                      198,592         1,139           
00337.M2TS      4786 (0x12B2)   0x90            PGS             slv (Slovenian)         91.883                  16                      187,453         1,071           
00337.M2TS      4787 (0x12B3)   0x90            PGS             tur (Turkish)           91.883                  18                      211,549         1,207           
00337.M2TS      4788 (0x12B4)   0x90            PGS             ukr (Ukrainian)         91.883                  19                      212,863         1,214           
00337.M2TS      4789 (0x12B5)   0x90            PGS             ita (Italian)           91.883                  71                      814,670         4,642           
00337.M2TS      4790 (0x12B6)   0x90            PGS             bul (Bulgarian)         91.883                  18                      202,544         1,158           
00342.M2TS (1)  4113 (0x1011)   0x24            HEVC                                    91.883                  51,488                  591,361,847     3,215,192       
00342.M2TS (1)  4352 (0x1100)   0x83            Atmos           eng (English)           91.883                  6,872                   78,928,182      498,145         
00342.M2TS (1)  4353 (0x1101)   0x81            AC3             ara (Arabic)            91.883                  641                     7,367,680       43,170          
00342.M2TS (1)  4354 (0x1102)   0x81            AC3             bul (Bulgarian)         91.883                  641                     7,367,680       43,170          
00342.M2TS (1)  4355 (0x1103)   0x81            AC3             hrv (Croatian)          91.883                  641                     7,367,680       43,170          
00342.M2TS (1)  4356 (0x1104)   0x81            AC3             ces (Czech)             91.883                  641                     7,367,680       43,170          
00342.M2TS (1)  4357 (0x1105)   0x81            AC3             est (Estonian)          91.883                  641                     7,367,680       43,170          
00342.M2TS (1)  4358 (0x1106)   0x81            AC3             ell (Greek)             91.883                  641                     7,367,680       43,170          
00342.M2TS (1)  4359 (0x1107)   0x81            AC3             heb (Hebrew)            91.883                  641                     7,367,680       43,170          
00342.M2TS (1)  4360 (0x1108)   0x81            AC3             hin (Hindi)             91.883                  641                     7,367,680       43,170          
00342.M2TS (1)  4361 (0x1109)   0x81            AC3             hun (Hungarian)         91.883                  641                     7,367,680       43,170          
00342.M2TS (1)  4362 (0x110A)   0x81            AC3             isl (Icelandic)         91.883                  641                     7,367,680       43,170          
00342.M2TS (1)  4363 (0x110B)   0x81            AC3             ita (Italian)           91.883                  641                     7,367,680       43,170          
00342.M2TS (1)  4364 (0x110C)   0x81            AC3             lav (Latvian)           91.883                  641                     7,367,680       43,170          
00342.M2TS (1)  4365 (0x110D)   0x81            AC3             lit (Lithuanian)        91.883                  641                     7,367,680       43,170          
00342.M2TS (1)  4366 (0x110E)   0x81            AC3             pol (Polish)            91.883                  641                     7,367,680       43,170          
00342.M2TS (1)  4367 (0x110F)   0x81            AC3             por (Portuguese)        91.883                  641                     7,367,680       43,170          
00342.M2TS (1)  4368 (0x1110)   0x81            AC3             ron (Romanian)          91.883                  641                     7,367,680       43,170          
00342.M2TS (1)  4369 (0x1111)   0x81            AC3             rus (Russian)           91.883                  641                     7,367,680       43,170          
00342.M2TS (1)  4370 (0x1112)   0x81            AC3             srp (Serbian)           91.883                  641                     7,367,680       43,170          
00342.M2TS (1)  4371 (0x1113)   0x81            AC3             slk (Slovak)            91.883                  641                     7,367,680       43,170          
00342.M2TS (1)  4372 (0x1114)   0x81            AC3             slv (Slovenian)         91.883                  641                     7,367,680       43,170          
00342.M2TS (1)  4373 (0x1115)   0x81            AC3             tur (Turkish)           91.883                  641                     7,367,680       43,170          
00342.M2TS (1)  4374 (0x1116)   0x81            AC3             ukr (Ukrainian)         91.883                  641                     7,367,680       43,170          
00342.M2TS (1)  4375 (0x1117)   0x81            AC3             eng (English)           91.883                  192                     2,210,304       14,390          
00342.M2TS (1)  4768 (0x12A0)   0x90            PGS             eng (English)           91.883                  16                      188,069         1,072           
00342.M2TS (1)  4769 (0x12A1)   0x90            PGS             ara (Arabic)            91.883                  9                       108,681         668             
00342.M2TS (1)  4770 (0x12A2)   0x90            PGS             hrv (Croatian)          91.883                  19                      213,226         1,216           
00342.M2TS (1)  4771 (0x12A3)   0x90            PGS             ces (Czech)             91.883                  18                      210,032         1,197           
00342.M2TS (1)  4772 (0x12A4)   0x90            PGS             est (Estonian)          91.883                  17                      200,564         1,146           
00342.M2TS (1)  4773 (0x12A5)   0x90            PGS             ell (Greek)             91.883                  19                      214,433         1,243           
00342.M2TS (1)  4774 (0x12A6)   0x90            PGS             heb (Hebrew)            91.883                  13                      146,793         873             
00342.M2TS (1)  4775 (0x12A7)   0x90            PGS             hun (Hungarian)         91.883                  16                      185,367         1,066           
00342.M2TS (1)  4776 (0x12A8)   0x90            PGS             isl (Icelandic)         91.883                  20                      228,183         1,298           
00342.M2TS (1)  4777 (0x12A9)   0x90            PGS             ita (Italian)           91.883                  18                      208,758         1,192           
00342.M2TS (1)  4778 (0x12AA)   0x90            PGS             lav (Latvian)           91.883                  17                      191,098         1,096           
00342.M2TS (1)  4779 (0x12AB)   0x90            PGS             lit (Lithuanian)        91.883                  20                      224,278         1,276           
00342.M2TS (1)  4780 (0x12AC)   0x90            PGS             pol (Polish)            91.883                  17                      193,089         1,106           
00342.M2TS (1)  4781 (0x12AD)   0x90            PGS             por (Portuguese)        91.883                  19                      221,915         1,263           
00342.M2TS (1)  4782 (0x12AE)   0x90            PGS             ron (Romanian)          91.883                  23                      260,691         1,496           
00342.M2TS (1)  4783 (0x12AF)   0x90            PGS             rus (Russian)           91.883                  20                      230,721         1,312           
00342.M2TS (1)  4784 (0x12B0)   0x90            PGS             srp (Serbian)           91.883                  18                      211,664         1,206           
00342.M2TS (1)  4785 (0x12B1)   0x90            PGS             slk (Slovak)            91.883                  17                      198,592         1,139           
00342.M2TS (1)  4786 (0x12B2)   0x90            PGS             slv (Slovenian)         91.883                  16                      187,453         1,071           
00342.M2TS (1)  4787 (0x12B3)   0x90            PGS             tur (Turkish)           91.883                  18                      211,549         1,207           
00342.M2TS (1)  4788 (0x12B4)   0x90            PGS             ukr (Ukrainian)         91.883                  19                      212,863         1,214           
00342.M2TS (1)  4789 (0x12B5)   0x90            PGS             ita (Italian)           91.883                  68                      780,529         4,452           
00342.M2TS (1)  4790 (0x12B6)   0x90            PGS             bul (Bulgarian)         91.883                  18                      202,544         1,158           
00346.M2TS      4113 (0x1011)   0x24            HEVC                                    1437.353                49,680                  8,925,910,733   48,530,545      
00346.M2TS      4352 (0x1100)   0x83            Atmos           eng (English)           1437.353                6,556                   1,177,852,140   7,492,836       
00346.M2TS      4353 (0x1101)   0x81            AC3             ara (Arabic)            1437.353                640                     114,997,760     673,815         
00346.M2TS      4354 (0x1102)   0x81            AC3             bul (Bulgarian)         1437.353                640                     114,997,760     673,815         
00346.M2TS      4355 (0x1103)   0x81            AC3             hrv (Croatian)          1437.353                640                     114,997,760     673,815         
00346.M2TS      4356 (0x1104)   0x81            AC3             ces (Czech)             1437.353                640                     114,997,760     673,815         
00346.M2TS      4357 (0x1105)   0x81            AC3             est (Estonian)          1437.353                640                     114,997,760     673,815         
00346.M2TS      4358 (0x1106)   0x81            AC3             ell (Greek)             1437.353                640                     114,997,760     673,815         
00346.M2TS      4359 (0x1107)   0x81            AC3             heb (Hebrew)            1437.353                640                     114,997,760     673,815         
00346.M2TS      4360 (0x1108)   0x81            AC3             hin (Hindi)             1437.353                640                     114,997,760     673,815         
00346.M2TS      4361 (0x1109)   0x81            AC3             hun (Hungarian)         1437.353                640                     114,997,760     673,815         
00346.M2TS      4362 (0x110A)   0x81            AC3             isl (Icelandic)         1437.353                640                     114,997,760     673,815         
00346.M2TS      4363 (0x110B)   0x81            AC3             ita (Italian)           1437.353                640                     114,997,760     673,815         
00346.M2TS      4364 (0x110C)   0x81            AC3             lav (Latvian)           1437.353                640                     114,997,760     673,815         
00346.M2TS      4365 (0x110D)   0x81            AC3             lit (Lithuanian)        1437.353                640                     114,997,760     673,815         
00346.M2TS      4366 (0x110E)   0x81            AC3             pol (Polish)            1437.353                640                     114,997,760     673,815         
00346.M2TS      4367 (0x110F)   0x81            AC3             por (Portuguese)        1437.353                640                     114,997,760     673,815         
00346.M2TS      4368 (0x1110)   0x81            AC3             ron (Romanian)          1437.353                640                     114,997,760     673,815         
00346.M2TS      4369 (0x1111)   0x81            AC3             rus (Russian)           1437.353                640                     114,997,760     673,815         
00346.M2TS      4370 (0x1112)   0x81            AC3             srp (Serbian)           1437.353                640                     114,997,760     673,815         
00346.M2TS      4371 (0x1113)   0x81            AC3             slk (Slovak)            1437.353                640                     114,997,760     673,815         
00346.M2TS      4372 (0x1114)   0x81            AC3             slv (Slovenian)         1437.353                640                     114,997,760     673,815         
00346.M2TS      4373 (0x1115)   0x81            AC3             tur (Turkish)           1437.353                640                     114,997,760     673,815         
00346.M2TS      4374 (0x1116)   0x81            AC3             ukr (Ukrainian)         1437.353                640                     114,997,760     673,815         
00346.M2TS      4375 (0x1117)   0x81            AC3             eng (English)           1437.353                192                     34,499,328      224,605         
00346.M2TS      4768 (0x12A0)   0x90            PGS             eng (English)           1437.353                38                      6,784,266       38,764          
00346.M2TS      4769 (0x12A1)   0x90            PGS             ara (Arabic)            1437.353                17                      3,107,900       18,661          
00346.M2TS      4770 (0x12A2)   0x90            PGS             hrv (Croatian)          1437.353                35                      6,370,538       36,505          
00346.M2TS      4771 (0x12A3)   0x90            PGS             ces (Czech)             1437.353                36                      6,527,023       37,367          
00346.M2TS      4772 (0x12A4)   0x90            PGS             est (Estonian)          1437.353                37                      6,732,115       38,483          
00346.M2TS      4773 (0x12A5)   0x90            PGS             ell (Greek)             1437.353                39                      6,949,265       39,537          
00346.M2TS      4774 (0x12A6)   0x90            PGS             heb (Hebrew)            1437.353                25                      4,490,453       26,184          
00346.M2TS      4775 (0x12A7)   0x90            PGS             hun (Hungarian)         1437.353                37                      6,657,736       38,071          
00346.M2TS      4776 (0x12A8)   0x90            PGS             isl (Icelandic)         1437.353                39                      7,038,011       40,139          
00346.M2TS      4777 (0x12A9)   0x90            PGS             ita (Italian)           1437.353                36                      6,499,901       37,221          
00346.M2TS      4778 (0x12AA)   0x90            PGS             lav (Latvian)           1437.353                34                      6,144,213       35,282          
00346.M2TS      4779 (0x12AB)   0x90            PGS             lit (Lithuanian)        1437.353                37                      6,626,253       37,900          
00346.M2TS      4780 (0x12AC)   0x90            PGS             pol (Polish)            1437.353                35                      6,356,366       36,431          
00346.M2TS      4781 (0x12AD)   0x90            PGS             por (Portuguese)        1437.353                40                      7,259,939       41,341          
00346.M2TS      4782 (0x12AE)   0x90            PGS             ron (Romanian)          1437.353                36                      6,471,621       36,941          
00346.M2TS      4783 (0x12AF)   0x90            PGS             rus (Russian)           1437.353                39                      7,063,950       40,289          
00346.M2TS      4784 (0x12B0)   0x90            PGS             srp (Serbian)           1437.353                36                      6,492,354       37,170          
00346.M2TS      4785 (0x12B1)   0x90            PGS             slk (Slovak)            1437.353                36                      6,540,213       37,441          
00346.M2TS      4786 (0x12B2)   0x90            PGS             slv (Slovenian)         1437.353                33                      6,001,625       34,509          
00346.M2TS      4787 (0x12B3)   0x90            PGS             tur (Turkish)           1437.353                39                      6,970,981       39,773          
00346.M2TS      4788 (0x12B4)   0x90            PGS             ukr (Ukrainian)         1437.353                37                      6,592,348       37,720          
00346.M2TS      4789 (0x12B5)   0x90            PGS             ita (Italian)           1437.353                67                      12,106,157      68,854          
00346.M2TS      4790 (0x12B6)   0x90            PGS             bul (Bulgarian)         1437.353                38                      6,863,861       39,195          
00340.M2TS      4113 (0x1011)   0x24            HEVC                                    488.571                 50,883                  3,107,498,261   16,895,376      
00340.M2TS      4352 (0x1100)   0x83            Atmos           eng (English)           488.571                 6,205                   378,973,988     2,413,325       
00340.M2TS      4353 (0x1101)   0x81            AC3             ara (Arabic)            488.571                 640                     39,101,440      229,110         
00340.M2TS      4354 (0x1102)   0x81            AC3             bul (Bulgarian)         488.571                 640                     39,101,440      229,110         
00340.M2TS      4355 (0x1103)   0x81            AC3             hrv (Croatian)          488.571                 640                     39,101,440      229,110         
00340.M2TS      4356 (0x1104)   0x81            AC3             ces (Czech)             488.571                 640                     39,101,440      229,110         
00340.M2TS      4357 (0x1105)   0x81            AC3             est (Estonian)          488.571                 640                     39,101,440      229,110         
00340.M2TS      4358 (0x1106)   0x81            AC3             ell (Greek)             488.571                 640                     39,101,440      229,110         
00340.M2TS      4359 (0x1107)   0x81            AC3             heb (Hebrew)            488.571                 640                     39,101,440      229,110         
00340.M2TS      4360 (0x1108)   0x81            AC3             hin (Hindi)             488.571                 640                     39,101,440      229,110         
00340.M2TS      4361 (0x1109)   0x81            AC3             hun (Hungarian)         488.571                 640                     39,101,440      229,110         
00340.M2TS      4362 (0x110A)   0x81            AC3             isl (Icelandic)         488.571                 640                     39,101,440      229,110         
00340.M2TS      4363 (0x110B)   0x81            AC3             ita (Italian)           488.571                 640                     39,101,440      229,110         
00340.M2TS      4364 (0x110C)   0x81            AC3             lav (Latvian)           488.571                 640                     39,101,440      229,110         
00340.M2TS      4365 (0x110D)   0x81            AC3             lit (Lithuanian)        488.571                 640                     39,101,440      229,110         
00340.M2TS      4366 (0x110E)   0x81            AC3             pol (Polish)            488.571                 640                     39,101,440      229,110         
00340.M2TS      4367 (0x110F)   0x81            AC3             por (Portuguese)        488.571                 640                     39,101,440      229,110         
00340.M2TS      4368 (0x1110)   0x81            AC3             ron (Romanian)          488.571                 640                     39,101,440      229,110         
00340.M2TS      4369 (0x1111)   0x81            AC3             rus (Russian)           488.571                 640                     39,101,440      229,110         
00340.M2TS      4370 (0x1112)   0x81            AC3             srp (Serbian)           488.571                 640                     39,101,440      229,110         
00340.M2TS      4371 (0x1113)   0x81            AC3             slk (Slovak)            488.571                 640                     39,101,440      229,110         
00340.M2TS      4372 (0x1114)   0x81            AC3             slv (Slovenian)         488.571                 640                     39,101,440      229,110         
00340.M2TS      4373 (0x1115)   0x81            AC3             tur (Turkish)           488.571                 640                     39,101,440      229,110         
00340.M2TS      4374 (0x1116)   0x81            AC3             ukr (Ukrainian)         488.571                 640                     39,101,440      229,110         
00340.M2TS      4375 (0x1117)   0x81            AC3             eng (English)           488.571                 192                     11,730,432      76,370          
00340.M2TS      4768 (0x12A0)   0x90            PGS             eng (English)           488.571                 16                      962,420         5,397           
00340.M2TS      4769 (0x12A1)   0x90            PGS             ara (Arabic)            488.571                 7                       425,753         2,479           
00340.M2TS      4770 (0x12A2)   0x90            PGS             hrv (Croatian)          488.571                 15                      941,714         5,304           
00340.M2TS      4771 (0x12A3)   0x90            PGS             ces (Czech)             488.571                 16                      988,984         5,559           
00340.M2TS      4772 (0x12A4)   0x90            PGS             est (Estonian)          488.571                 18                      1,100,066       6,162           
00340.M2TS      4773 (0x12A5)   0x90            PGS             ell (Greek)             488.571                 18                      1,073,211       5,998           
00340.M2TS      4774 (0x12A6)   0x90            PGS             heb (Hebrew)            488.571                 11                      683,713         3,883           
00340.M2TS      4775 (0x12A7)   0x90            PGS             hun (Hungarian)         488.571                 17                      1,049,576       5,892           
00340.M2TS      4776 (0x12A8)   0x90            PGS             isl (Icelandic)         488.571                 19                      1,139,669       6,379           
00340.M2TS      4777 (0x12A9)   0x90            PGS             ita (Italian)           488.571                 16                      982,053         5,523           
00340.M2TS      4778 (0x12AA)   0x90            PGS             lav (Latvian)           488.571                 16                      965,546         5,436           
00340.M2TS      4779 (0x12AB)   0x90            PGS             lit (Lithuanian)        488.571                 18                      1,089,567       6,106           
00340.M2TS      4780 (0x12AC)   0x90            PGS             pol (Polish)            488.571                 17                      1,020,670       5,734           
00340.M2TS      4781 (0x12AD)   0x90            PGS             por (Portuguese)        488.571                 18                      1,129,309       6,322           
00340.M2TS      4782 (0x12AE)   0x90            PGS             ron (Romanian)          488.571                 17                      1,032,380       5,777           
00340.M2TS      4783 (0x12AF)   0x90            PGS             rus (Russian)           488.571                 19                      1,152,387       6,449           
00340.M2TS      4784 (0x12B0)   0x90            PGS             srp (Serbian)           488.571                 17                      1,046,334       5,870           
00340.M2TS      4785 (0x12B1)   0x90            PGS             slk (Slovak)            488.571                 17                      1,014,791       5,704           
00340.M2TS      4786 (0x12B2)   0x90            PGS             slv (Slovenian)         488.571                 15                      925,265         5,214           
00340.M2TS      4787 (0x12B3)   0x90            PGS             tur (Turkish)           488.571                 19                      1,140,937       6,386           
00340.M2TS      4788 (0x12B4)   0x90            PGS             ukr (Ukrainian)         488.571                 17                      1,062,983       5,964           
00340.M2TS      4789 (0x12B5)   0x90            PGS             ita (Italian)           488.571                 41                      2,528,130       14,370          
00340.M2TS      4790 (0x12B6)   0x90            PGS             bul (Bulgarian)         488.571                 19                      1,151,078       6,446           
00343.M2TS (1)  4113 (0x1011)   0x24            HEVC                                    488.571                 51,314                  3,133,843,202   17,038,572      
00343.M2TS (1)  4352 (0x1100)   0x83            Atmos           eng (English)           488.571                 6,205                   378,973,988     2,413,325       
00343.M2TS (1)  4353 (0x1101)   0x81            AC3             ara (Arabic)            488.571                 640                     39,101,440      229,110         
00343.M2TS (1)  4354 (0x1102)   0x81            AC3             bul (Bulgarian)         488.571                 640                     39,101,440      229,110         
00343.M2TS (1)  4355 (0x1103)   0x81            AC3             hrv (Croatian)          488.571                 640                     39,101,440      229,110         
00343.M2TS (1)  4356 (0x1104)   0x81            AC3             ces (Czech)             488.571                 640                     39,101,440      229,110         
00343.M2TS (1)  4357 (0x1105)   0x81            AC3             est (Estonian)          488.571                 640                     39,101,440      229,110         
00343.M2TS (1)  4358 (0x1106)   0x81            AC3             ell (Greek)             488.571                 640                     39,101,440      229,110         
00343.M2TS (1)  4359 (0x1107)   0x81            AC3             heb (Hebrew)            488.571                 640                     39,101,440      229,110         
00343.M2TS (1)  4360 (0x1108)   0x81            AC3             hin (Hindi)             488.571                 640                     39,101,440      229,110         
00343.M2TS (1)  4361 (0x1109)   0x81            AC3             hun (Hungarian)         488.571                 640                     39,101,440      229,110         
00343.M2TS (1)  4362 (0x110A)   0x81            AC3             isl (Icelandic)         488.571                 640                     39,101,440      229,110         
00343.M2TS (1)  4363 (0x110B)   0x81            AC3             ita (Italian)           488.571                 640                     39,101,440      229,110         
00343.M2TS (1)  4364 (0x110C)   0x81            AC3             lav (Latvian)           488.571                 640                     39,101,440      229,110         
00343.M2TS (1)  4365 (0x110D)   0x81            AC3             lit (Lithuanian)        488.571                 640                     39,101,440      229,110         
00343.M2TS (1)  4366 (0x110E)   0x81            AC3             pol (Polish)            488.571                 640                     39,101,440      229,110         
00343.M2TS (1)  4367 (0x110F)   0x81            AC3             por (Portuguese)        488.571                 640                     39,101,440      229,110         
00343.M2TS (1)  4368 (0x1110)   0x81            AC3             ron (Romanian)          488.571                 640                     39,101,440      229,110         
00343.M2TS (1)  4369 (0x1111)   0x81            AC3             rus (Russian)           488.571                 640                     39,101,440      229,110         
00343.M2TS (1)  4370 (0x1112)   0x81            AC3             srp (Serbian)           488.571                 640                     39,101,440      229,110         
00343.M2TS (1)  4371 (0x1113)   0x81            AC3             slk (Slovak)            488.571                 640                     39,101,440      229,110         
00343.M2TS (1)  4372 (0x1114)   0x81            AC3             slv (Slovenian)         488.571                 640                     39,101,440      229,110         
00343.M2TS (1)  4373 (0x1115)   0x81            AC3             tur (Turkish)           488.571                 640                     39,101,440      229,110         
00343.M2TS (1)  4374 (0x1116)   0x81            AC3             ukr (Ukrainian)         488.571                 640                     39,101,440      229,110         
00343.M2TS (1)  4375 (0x1117)   0x81            AC3             eng (English)           488.571                 192                     11,730,432      76,370          
00343.M2TS (1)  4768 (0x12A0)   0x90            PGS             eng (English)           488.571                 16                      962,420         5,397           
00343.M2TS (1)  4769 (0x12A1)   0x90            PGS             ara (Arabic)            488.571                 7                       425,753         2,479           
00343.M2TS (1)  4770 (0x12A2)   0x90            PGS             hrv (Croatian)          488.571                 15                      941,714         5,304           
00343.M2TS (1)  4771 (0x12A3)   0x90            PGS             ces (Czech)             488.571                 16                      988,984         5,559           
00343.M2TS (1)  4772 (0x12A4)   0x90            PGS             est (Estonian)          488.571                 18                      1,100,066       6,162           
00343.M2TS (1)  4773 (0x12A5)   0x90            PGS             ell (Greek)             488.571                 18                      1,073,211       5,998           
00343.M2TS (1)  4774 (0x12A6)   0x90            PGS             heb (Hebrew)            488.571                 11                      683,713         3,883           
00343.M2TS (1)  4775 (0x12A7)   0x90            PGS             hun (Hungarian)         488.571                 17                      1,049,576       5,892           
00343.M2TS (1)  4776 (0x12A8)   0x90            PGS             isl (Icelandic)         488.571                 19                      1,139,669       6,379           
00343.M2TS (1)  4777 (0x12A9)   0x90            PGS             ita (Italian)           488.571                 16                      982,053         5,523           
00343.M2TS (1)  4778 (0x12AA)   0x90            PGS             lav (Latvian)           488.571                 16                      965,546         5,436           
00343.M2TS (1)  4779 (0x12AB)   0x90            PGS             lit (Lithuanian)        488.571                 18                      1,089,567       6,106           
00343.M2TS (1)  4780 (0x12AC)   0x90            PGS             pol (Polish)            488.571                 17                      1,020,670       5,734           
00343.M2TS (1)  4781 (0x12AD)   0x90            PGS             por (Portuguese)        488.571                 18                      1,129,309       6,322           
00343.M2TS (1)  4782 (0x12AE)   0x90            PGS             ron (Romanian)          488.571                 17                      1,032,380       5,777           
00343.M2TS (1)  4783 (0x12AF)   0x90            PGS             rus (Russian)           488.571                 19                      1,152,387       6,449           
00343.M2TS (1)  4784 (0x12B0)   0x90            PGS             srp (Serbian)           488.571                 17                      1,046,334       5,870           
00343.M2TS (1)  4785 (0x12B1)   0x90            PGS             slk (Slovak)            488.571                 17                      1,014,791       5,704           
00343.M2TS (1)  4786 (0x12B2)   0x90            PGS             slv (Slovenian)         488.571                 15                      925,265         5,214           
00343.M2TS (1)  4787 (0x12B3)   0x90            PGS             tur (Turkish)           488.571                 19                      1,140,937       6,386           
00343.M2TS (1)  4788 (0x12B4)   0x90            PGS             ukr (Ukrainian)         488.571                 17                      1,062,983       5,964           
00343.M2TS (1)  4789 (0x12B5)   0x90            PGS             ita (Italian)           488.571                 41                      2,528,130       14,370          
00343.M2TS (1)  4790 (0x12B6)   0x90            PGS             bul (Bulgarian)         488.571                 19                      1,151,078       6,446           

[/code]
<---- END FORUMS PASTE ---->

QUICK SUMMARY:

Disc Title: Smurfs: The Lost Village – 4K Ultra HD
Disc Label: Smurfs.The.Lost.Village.2017.COMPLETE.UHD.BLURAY-GLiMMER
Disc Size: 57,622,367,638 bytes
Protection: AACS2
Playlist: 00510.MPLS
Size: 51,683,782,656 bytes
Length: 1:29:46.380
Total Bitrate: 76.76 Mbps
Video: MPEG-H HEVC Video / 49707 kbps / 2160p / 23.976 fps / 16:9 / Main 10 @ Level 5.1 @ High / 10 bits / HDR10 / BT.2020
Video: MPEG-H HEVC Video (1) / 5533 (51312) kbps / 2160p / 23.976 fps / 16:9 / Main 10 @ Level 5.1 @ High / 10 bits / HDR10 / BT.2020
Audio: English / Dolby TrueHD/Atmos Audio / 7.1 / 48 kHz /  5669 kbps / 24-bit (AC3 Embedded: 5.1 / 48 kHz /   640 kbps / DN -31dB)
Audio: Arabic / Dolby Digital Audio / 5.1 / 48 kHz /   640 kbps / DN -31dB
Audio: Bulgarian / Dolby Digital Audio / 5.1 / 48 kHz /   640 kbps / DN -31dB
Audio: Croatian / Dolby Digital Audio / 5.1 / 48 kHz /   640 kbps / DN -31dB
Audio: Czech / Dolby Digital Audio / 5.1 / 48 kHz /   640 kbps / DN -31dB
Audio: Estonian / Dolby Digital Audio / 5.1 / 48 kHz /   640 kbps / DN -31dB
Audio: Greek / Dolby Digital Audio / 5.1 / 48 kHz /   640 kbps / DN -31dB
Audio: Hebrew / Dolby Digital Audio / 5.1 / 48 kHz /   640 kbps / DN -31dB
Audio: Hindi / Dolby Digital Audio / 5.1 / 48 kHz /   640 kbps / DN -31dB
Audio: Hungarian / Dolby Digital Audio / 5.1 / 48 kHz /   640 kbps / DN -31dB
Audio: Icelandic / Dolby Digital Audio / 5.1 / 48 kHz /   640 kbps / DN -31dB
Audio: Italian / Dolby Digital Audio / 5.1 / 48 kHz /   640 kbps / DN -31dB
Audio: Latvian / Dolby Digital Audio / 5.1 / 48 kHz /   640 kbps / DN -31dB
Audio: Lithuanian / Dolby Digital Audio / 5.1 / 48 kHz /   640 kbps / DN -31dB
Audio: Polish / Dolby Digital Audio / 5.1 / 48 kHz /   640 kbps / DN -31dB
Audio: Portuguese / Dolby Digital Audio / 5.1 / 48 kHz /   640 kbps / DN -31dB
Audio: Romanian / Dolby Digital Audio / 5.1 / 48 kHz /   640 kbps / DN -31dB
Audio: Russian / Dolby Digital Audio / 5.1 / 48 kHz /   640 kbps / DN -31dB
Audio: Serbian / Dolby Digital Audio / 5.1 / 48 kHz /   640 kbps / DN -31dB
Audio: Slovak / Dolby Digital Audio / 5.1 / 48 kHz /   640 kbps / DN -31dB
Audio: Slovenian / Dolby Digital Audio / 5.1 / 48 kHz /   640 kbps / DN -31dB
Audio: Turkish / Dolby Digital Audio / 5.1 / 48 kHz /   640 kbps / DN -31dB
Audio: Ukrainian / Dolby Digital Audio / 5.1 / 48 kHz /   640 kbps / DN -31dB
Audio: English / Dolby Digital Audio / 2.0 / 48 kHz /   192 kbps / DN -31dB / Dolby Surround
Subtitle: English / 40.317 kbps
Subtitle: Arabic / 18.154 kbps
Subtitle: Croatian / 37.157 kbps
Subtitle: Czech / 37.697 kbps
Subtitle: Estonian / 40.473 kbps
Subtitle: Greek / 41.472 kbps
Subtitle: Hebrew / 26.538 kbps
Subtitle: Hungarian / 38.741 kbps
Subtitle: Icelandic / 42.886 kbps
Subtitle: Italian / 38.893 kbps
Subtitle: Latvian / 36.578 kbps
Subtitle: Lithuanian / 39.659 kbps
Subtitle: Polish / 37.390 kbps
Subtitle: Portuguese / 43.289 kbps
Subtitle: Romanian / 38.497 kbps
Subtitle: Russian / 42.049 kbps
Subtitle: Serbian / 38.506 kbps
Subtitle: Slovak / 39.198 kbps
Subtitle: Slovenian / 36.058 kbps
Subtitle: Turkish / 41.740 kbps
Subtitle: Ukrainian / 39.236 kbps
Subtitle: Italian / 65.061 kbps
Subtitle: Bulgarian / 40.475 kbps


********************
PLAYLIST: 00505.MPLS
********************

<--- BEGIN FORUMS PASTE --->
[code]
                                                                                                                Total   Video                                             
Title                                                           Codec   Length  Movie Size      Disc Size       Bitrate Bitrate Main Audio Track                          Secondary Audio Track
-----                                                           ------  ------- --------------  --------------  ------- ------- ------------------                        ---------------------
00505.MPLS                                                      HEVC    0:56:08 32,224,806,912  57,622,367,638  76.54   49.51   Dolby Atmos 7.1 6204Kbps (48kHz/24-bit)   
[/code]

[code]

DISC INFO:

Disc Title:     Smurfs: The Lost Village – 4K Ultra HD
Disc Label:     Smurfs.The.Lost.Village.2017.COMPLETE.UHD.BLURAY-GLiMMER
Disc Size:      57,622,367,638 bytes
Protection:     AACS2
Extras:         Ultra HD, BD-Java
BDInfo:         0.7.5.5

PLAYLIST REPORT:

Name:                   00505.MPLS
Length:                 0:56:08.156 (h:m:s.ms)
Size:                   32,224,806,912 bytes
Total Bitrate:          76.54 Mbps

VIDEO:

Codec                   Bitrate             Description     
-----                   -------             -----------     
MPEG-H HEVC Video       49506 kbps          2160p / 23.976 fps / 16:9 / Main 10 @ Level 5.1 @ High / 10 bits / HDR10 / BT.2020

AUDIO:

Codec                           Language        Bitrate         Description     
-----                           --------        -------         -----------     
Dolby TrueHD/Atmos Audio        English         6204 kbps       7.1 / 48 kHz /  5564 kbps / 24-bit (AC3 Embedded: 5.1 / 48 kHz /   640 kbps / DN -31dB)
Dolby Digital Audio             Arabic          640 kbps        5.1 / 48 kHz /   640 kbps / DN -31dB
Dolby Digital Audio             Bulgarian       640 kbps        5.1 / 48 kHz /   640 kbps / DN -31dB
Dolby Digital Audio             Croatian        640 kbps        5.1 / 48 kHz /   640 kbps / DN -31dB
Dolby Digital Audio             Czech           640 kbps        5.1 / 48 kHz /   640 kbps / DN -31dB
Dolby Digital Audio             Estonian        640 kbps        5.1 / 48 kHz /   640 kbps / DN -31dB
Dolby Digital Audio             Greek           640 kbps        5.1 / 48 kHz /   640 kbps / DN -31dB
Dolby Digital Audio             Hebrew          640 kbps        5.1 / 48 kHz /   640 kbps / DN -31dB
Dolby Digital Audio             Hindi           640 kbps        5.1 / 48 kHz /   640 kbps / DN -31dB
Dolby Digital Audio             Hungarian       640 kbps        5.1 / 48 kHz /   640 kbps / DN -31dB
Dolby Digital Audio             Icelandic       640 kbps        5.1 / 48 kHz /   640 kbps / DN -31dB
Dolby Digital Audio             Italian         640 kbps        5.1 / 48 kHz /   640 kbps / DN -31dB
Dolby Digital Audio             Latvian         640 kbps        5.1 / 48 kHz /   640 kbps / DN -31dB
Dolby Digital Audio             Lithuanian      640 kbps        5.1 / 48 kHz /   640 kbps / DN -31dB
Dolby Digital Audio             Polish          640 kbps        5.1 / 48 kHz /   640 kbps / DN -31dB
Dolby Digital Audio             Portuguese      640 kbps        5.1 / 48 kHz /   640 kbps / DN -31dB
Dolby Digital Audio             Romanian        640 kbps        5.1 / 48 kHz /   640 kbps / DN -31dB
Dolby Digital Audio             Russian         640 kbps        5.1 / 48 kHz /   640 kbps / DN -31dB
Dolby Digital Audio             Serbian         640 kbps        5.1 / 48 kHz /   640 kbps / DN -31dB
Dolby Digital Audio             Slovak          640 kbps        5.1 / 48 kHz /   640 kbps / DN -31dB
Dolby Digital Audio             Slovenian       640 kbps        5.1 / 48 kHz /   640 kbps / DN -31dB
Dolby Digital Audio             Turkish         640 kbps        5.1 / 48 kHz /   640 kbps / DN -31dB
Dolby Digital Audio             Ukrainian       640 kbps        5.1 / 48 kHz /   640 kbps / DN -31dB
Dolby Digital Audio             English         192 kbps        2.0 / 48 kHz /   192 kbps / DN -31dB / Dolby Surround

SUBTITLES:

Codec                           Language        Bitrate         Description     
-----                           --------        -------         -----------     
Presentation Graphics           English         45.628 kbps                     
Presentation Graphics           Arabic          20.381 kbps                     
Presentation Graphics           Croatian        41.548 kbps                     
Presentation Graphics           Czech           41.934 kbps                     
Presentation Graphics           Estonian        45.646 kbps                     
Presentation Graphics           Greek           46.758 kbps                     
Presentation Graphics           Hebrew          29.801 kbps                     
Presentation Graphics           Hungarian       43.208 kbps                     
Presentation Graphics           Icelandic       48.619 kbps                     
Presentation Graphics           Italian         43.931 kbps                     
Presentation Graphics           Latvian         41.154 kbps                     
Presentation Graphics           Lithuanian      44.564 kbps                     
Presentation Graphics           Polish          41.814 kbps                     
Presentation Graphics           Portuguese      48.774 kbps                     
Presentation Graphics           Romanian        43.122 kbps                     
Presentation Graphics           Russian         47.181 kbps                     
Presentation Graphics           Serbian         43.170 kbps                     
Presentation Graphics           Slovak          44.269 kbps                     
Presentation Graphics           Slovenian       40.766 kbps                     
Presentation Graphics           Turkish         46.981 kbps                     
Presentation Graphics           Ukrainian       44.059 kbps                     
Presentation Graphics           Italian         67.352 kbps                     
Presentation Graphics           Bulgarian       45.210 kbps                     

FILES:

Name            Time In         Length          Size            Total Bitrate   
----            -------         ------          ----            -------------   
00336.M2TS      0:00:00.000     0:56:08.156     32,224,806,912  76,540          

CHAPTERS:

Number          Time In         Length          Avg Video Rate  Max 1-Sec Rate  Max 1-Sec Time  Max 5-Sec Rate  Max 5-Sec Time  Max 10Sec Rate  Max 10Sec Time  Avg Frame Size  Max Frame Size  Max Frame Time  
------          -------         ------          --------------  --------------  --------------  --------------  --------------  --------------  --------------  --------------  --------------  --------------  
1               0:00:00.000     0:56:08.156     49,506 kbps     106,732 kbps    00:40:07.113    83,004 kbps     00:40:06.779    74,448 kbps     00:43:27.938    0 bytes         1,574,446 bytes 00:34:08.129    

STREAM DIAGNOSTICS:

File            PID             Type            Codec           Language                Seconds                 Bitrate                 Bytes           Packets         
----            ---             ----            -----           --------                --------------          --------------          -------------   -----           
00336.M2TS      4113 (0x1011)   0x24            HEVC                                    3368.031                49,508                  20,842,880,068  113,323,865     
00336.M2TS      4352 (0x1100)   0x83            Atmos           eng (English)           3368.031                6,204                   2,611,933,988   16,616,350      
00336.M2TS      4353 (0x1101)   0x81            AC3             ara (Arabic)            3368.031                640                     269,455,360     1,578,840       
00336.M2TS      4354 (0x1102)   0x81            AC3             bul (Bulgarian)         3368.031                640                     269,455,360     1,578,840       
00336.M2TS      4355 (0x1103)   0x81            AC3             hrv (Croatian)          3368.031                640                     269,455,360     1,578,840       
00336.M2TS      4356 (0x1104)   0x81            AC3             ces (Czech)             3368.031                640                     269,455,360     1,578,840       
00336.M2TS      4357 (0x1105)   0x81            AC3             est (Estonian)          3368.031                640                     269,455,360     1,578,840       
00336.M2TS      4358 (0x1106)   0x81            AC3             ell (Greek)             3368.031                640                     269,455,360     1,578,840       
00336.M2TS      4359 (0x1107)   0x81            AC3             heb (Hebrew)            3368.031                640                     269,455,360     1,578,840       
00336.M2TS      4360 (0x1108)   0x81            AC3             hin (Hindi)             3368.031                640                     269,455,360     1,578,840       
00336.M2TS      4361 (0x1109)   0x81            AC3             hun (Hungarian)         3368.031                640                     269,455,360     1,578,840       
00336.M2TS      4362 (0x110A)   0x81            AC3             isl (Icelandic)         3368.031                640                     269,455,360     1,578,840       
00336.M2TS      4363 (0x110B)   0x81            AC3             ita (Italian)           3368.031                640                     269,455,360     1,578,840       
00336.M2TS      4364 (0x110C)   0x81            AC3             lav (Latvian)           3368.031                640                     269,455,360     1,578,840       
00336.M2TS      4365 (0x110D)   0x81            AC3             lit (Lithuanian)        3368.031                640                     269,455,360     1,578,840       
00336.M2TS      4366 (0x110E)   0x81            AC3             pol (Polish)            3368.031                640                     269,455,360     1,578,840       
00336.M2TS      4367 (0x110F)   0x81            AC3             por (Portuguese)        3368.031                640                     269,455,360     1,578,840       
00336.M2TS      4368 (0x1110)   0x81            AC3             ron (Romanian)          3368.031                640                     269,455,360     1,578,840       
00336.M2TS      4369 (0x1111)   0x81            AC3             rus (Russian)           3368.031                640                     269,455,360     1,578,840       
00336.M2TS      4370 (0x1112)   0x81            AC3             srp (Serbian)           3368.031                640                     269,455,360     1,578,840       
00336.M2TS      4371 (0x1113)   0x81            AC3             slk (Slovak)            3368.031                640                     269,455,360     1,578,840       
00336.M2TS      4372 (0x1114)   0x81            AC3             slv (Slovenian)         3368.031                640                     269,455,360     1,578,840       
00336.M2TS      4373 (0x1115)   0x81            AC3             tur (Turkish)           3368.031                640                     269,455,360     1,578,840       
00336.M2TS      4374 (0x1116)   0x81            AC3             ukr (Ukrainian)         3368.031                640                     269,455,360     1,578,840       
00336.M2TS      4375 (0x1117)   0x81            AC3             eng (English)           3368.031                192                     80,836,608      526,280         
00336.M2TS      4768 (0x12A0)   0x90            PGS             eng (English)           3368.031                46                      19,210,474      109,333         
00336.M2TS      4769 (0x12A1)   0x90            PGS             ara (Arabic)            3368.031                20                      8,580,648       51,504          
00336.M2TS      4770 (0x12A2)   0x90            PGS             hrv (Croatian)          3368.031                42                      17,492,496      99,979          
00336.M2TS      4771 (0x12A3)   0x90            PGS             ces (Czech)             3368.031                42                      17,655,057      100,868         
00336.M2TS      4772 (0x12A4)   0x90            PGS             est (Estonian)          3368.031                46                      19,217,852      109,356         
00336.M2TS      4773 (0x12A5)   0x90            PGS             ell (Greek)             3368.031                47                      19,685,953      111,858         
00336.M2TS      4774 (0x12A6)   0x90            PGS             heb (Hebrew)            3368.031                30                      12,546,964      73,132          
00336.M2TS      4775 (0x12A7)   0x90            PGS             hun (Hungarian)         3368.031                43                      18,191,513      103,784         
00336.M2TS      4776 (0x12A8)   0x90            PGS             isl (Icelandic)         3368.031                49                      20,469,405      116,171         
00336.M2TS      4777 (0x12A9)   0x90            PGS             ita (Italian)           3368.031                44                      18,495,859      105,438         
00336.M2TS      4778 (0x12AA)   0x90            PGS             lav (Latvian)           3368.031                41                      17,326,698      99,098          
00336.M2TS      4779 (0x12AB)   0x90            PGS             lit (Lithuanian)        3368.031                45                      18,762,481      106,876         
00336.M2TS      4780 (0x12AC)   0x90            PGS             pol (Polish)            3368.031                42                      17,604,488      100,603         
00336.M2TS      4781 (0x12AD)   0x90            PGS             por (Portuguese)        3368.031                49                      20,534,911      116,514         
00336.M2TS      4782 (0x12AE)   0x90            PGS             ron (Romanian)          3368.031                43                      18,155,104      103,561         
00336.M2TS      4783 (0x12AF)   0x90            PGS             rus (Russian)           3368.031                47                      19,864,280      112,862         
00336.M2TS      4784 (0x12B0)   0x90            PGS             srp (Serbian)           3368.031                43                      18,175,489      103,697         
00336.M2TS      4785 (0x12B1)   0x90            PGS             slk (Slovak)            3368.031                44                      18,638,244      106,206         
00336.M2TS      4786 (0x12B2)   0x90            PGS             slv (Slovenian)         3368.031                41                      17,163,440      98,194          
00336.M2TS      4787 (0x12B3)   0x90            PGS             tur (Turkish)           3368.031                47                      19,780,100      112,387         
00336.M2TS      4788 (0x12B4)   0x90            PGS             ukr (Ukrainian)         3368.031                44                      18,549,628      105,747         
00336.M2TS      4789 (0x12B5)   0x90            PGS             ita (Italian)           3368.031                67                      28,356,542      160,898         
00336.M2TS      4790 (0x12B6)   0x90            PGS             bul (Bulgarian)         3368.031                45                      19,034,198      108,360         

[/code]
<---- END FORUMS PASTE ---->

QUICK SUMMARY:

Disc Title: Smurfs: The Lost Village – 4K Ultra HD
Disc Label: Smurfs.The.Lost.Village.2017.COMPLETE.UHD.BLURAY-GLiMMER
Disc Size: 57,622,367,638 bytes
Protection: AACS2
Playlist: 00505.MPLS
Size: 32,224,806,912 bytes
Length: 0:56:08.156
Total Bitrate: 76.54 Mbps
Video: MPEG-H HEVC Video / 49506 kbps / 2160p / 23.976 fps / 16:9 / Main 10 @ Level 5.1 @ High / 10 bits / HDR10 / BT.2020
Audio: English / Dolby TrueHD/Atmos Audio / 7.1 / 48 kHz /  5564 kbps / 24-bit (AC3 Embedded: 5.1 / 48 kHz /   640 kbps / DN -31dB)
Audio: Arabic / Dolby Digital Audio / 5.1 / 48 kHz /   640 kbps / DN -31dB
Audio: Bulgarian / Dolby Digital Audio / 5.1 / 48 kHz /   640 kbps / DN -31dB
Audio: Croatian / Dolby Digital Audio / 5.1 / 48 kHz /   640 kbps / DN -31dB
Audio: Czech / Dolby Digital Audio / 5.1 / 48 kHz /   640 kbps / DN -31dB
Audio: Estonian / Dolby Digital Audio / 5.1 / 48 kHz /   640 kbps / DN -31dB
Audio: Greek / Dolby Digital Audio / 5.1 / 48 kHz /   640 kbps / DN -31dB
Audio: Hebrew / Dolby Digital Audio / 5.1 / 48 kHz /   640 kbps / DN -31dB
Audio: Hindi / Dolby Digital Audio / 5.1 / 48 kHz /   640 kbps / DN -31dB
Audio: Hungarian / Dolby Digital Audio / 5.1 / 48 kHz /   640 kbps / DN -31dB
Audio: Icelandic / Dolby Digital Audio / 5.1 / 48 kHz /   640 kbps / DN -31dB
Audio: Italian / Dolby Digital Audio / 5.1 / 48 kHz /   640 kbps / DN -31dB
Audio: Latvian / Dolby Digital Audio / 5.1 / 48 kHz /   640 kbps / DN -31dB
Audio: Lithuanian / Dolby Digital Audio / 5.1 / 48 kHz /   640 kbps / DN -31dB
Audio: Polish / Dolby Digital Audio / 5.1 / 48 kHz /   640 kbps / DN -31dB
Audio: Portuguese / Dolby Digital Audio / 5.1 / 48 kHz /   640 kbps / DN -31dB
Audio: Romanian / Dolby Digital Audio / 5.1 / 48 kHz /   640 kbps / DN -31dB
Audio: Russian / Dolby Digital Audio / 5.1 / 48 kHz /   640 kbps / DN -31dB
Audio: Serbian / Dolby Digital Audio / 5.1 / 48 kHz /   640 kbps / DN -31dB
Audio: Slovak / Dolby Digital Audio / 5.1 / 48 kHz /   640 kbps / DN -31dB
Audio: Slovenian / Dolby Digital Audio / 5.1 / 48 kHz /   640 kbps / DN -31dB
Audio: Turkish / Dolby Digital Audio / 5.1 / 48 kHz /   640 kbps / DN -31dB
Audio: Ukrainian / Dolby Digital Audio / 5.1 / 48 kHz /   640 kbps / DN -31dB
Audio: English / Dolby Digital Audio / 2.0 / 48 kHz /   192 kbps / DN -31dB / Dolby Surround
Subtitle: English / 45.628 kbps
Subtitle: Arabic / 20.381 kbps
Subtitle: Croatian / 41.548 kbps
Subtitle: Czech / 41.934 kbps
Subtitle: Estonian / 45.646 kbps
Subtitle: Greek / 46.758 kbps
Subtitle: Hebrew / 29.801 kbps
Subtitle: Hungarian / 43.208 kbps
Subtitle: Icelandic / 48.619 kbps
Subtitle: Italian / 43.931 kbps
Subtitle: Latvian / 41.154 kbps
Subtitle: Lithuanian / 44.564 kbps
Subtitle: Polish / 41.814 kbps
Subtitle: Portuguese / 48.774 kbps
Subtitle: Romanian / 43.122 kbps
Subtitle: Russian / 47.181 kbps
Subtitle: Serbian / 43.170 kbps
Subtitle: Slovak / 44.269 kbps
Subtitle: Slovenian / 40.766 kbps
Subtitle: Turkish / 46.981 kbps
Subtitle: Ukrainian / 44.059 kbps
Subtitle: Italian / 67.352 kbps
Subtitle: Bulgarian / 45.210 kbps

